<svg width="157" height="32" viewBox="0 0 157 32" fill="none" xmlns="http://www.w3.org/2000/svg">
<path d="M37.5819 0.212334H26.5142C26.1578 0.212273 25.8068 0.30031 25.4926 0.468614C25.1784 0.636919 24.9107 0.88027 24.7133 1.17702L22.0918 5.09347C21.8552 5.44918 21.729 5.86688 21.729 6.29409C21.729 6.72131 21.8552 7.13899 22.0918 7.49471L22.1888 7.64151C22.3868 7.93836 22.655 8.18174 22.9696 8.35007C23.2842 8.51841 23.6355 8.60648 23.9924 8.60648C24.3492 8.60648 24.7005 8.51841 25.0151 8.35007C25.3297 8.18174 25.5979 7.93836 25.7959 7.64151L27.8249 4.62423C27.8994 4.51393 27.9997 4.42353 28.1171 4.36093C28.2346 4.29833 28.3655 4.26542 28.4986 4.26509H31.9799C32.1263 4.26526 32.27 4.30513 32.3955 4.38044C32.5211 4.45575 32.6239 4.56368 32.693 4.69277C32.7622 4.82186 32.795 4.96726 32.788 5.11352C32.7811 5.25978 32.7346 5.40143 32.6536 5.52339L26.0397 15.4665C25.9657 15.5774 25.8655 15.6683 25.748 15.7311C25.6305 15.794 25.4993 15.8268 25.366 15.8268C25.2327 15.8268 25.1015 15.794 24.984 15.7311C24.8665 15.6683 24.7663 15.5774 24.6923 15.4665L15.1869 1.17965C14.989 0.882532 14.7209 0.638816 14.4063 0.470086C14.0917 0.301357 13.7404 0.212822 13.3834 0.212334H2.34707C1.95459 0.212301 1.56946 0.318812 1.23277 0.52051C0.896086 0.722209 0.620469 1.01153 0.435325 1.3576C0.250181 1.70367 0.162457 2.0935 0.181512 2.48552C0.200567 2.87754 0.325683 3.25704 0.543517 3.58352L18.1596 29.9841C18.3529 30.2735 18.6129 30.512 18.9178 30.6797C19.2227 30.8474 19.5634 30.9392 19.9113 30.9475C20.2591 30.9557 20.6038 30.8801 20.9163 30.727C21.2287 30.5739 21.4998 30.3479 21.7065 30.068L23.9897 26.6601C24.2135 26.3034 24.3325 25.891 24.3331 25.47C24.3294 25.1642 24.2653 24.8621 24.1447 24.5811C24.024 24.3001 23.8491 24.0456 23.6299 23.8323C23.4108 23.619 23.1517 23.451 22.8675 23.338C22.5833 23.2249 22.2796 23.1691 21.9738 23.1736C21.7255 23.1737 21.4788 23.2126 21.2425 23.2889C21.0127 23.3607 20.7959 23.4687 20.6002 23.6087C20.5053 23.6924 20.4056 23.7703 20.3014 23.8421C20.221 23.8886 20.1316 23.9172 20.0392 23.9259C19.8534 23.9398 19.6685 23.8899 19.5149 23.7844C19.4257 23.7218 19.3484 23.6437 19.2869 23.5537L7.27277 5.52339C7.19174 5.40143 7.14528 5.25978 7.13834 5.11352C7.1314 4.96726 7.16423 4.82186 7.23335 4.69277C7.30246 4.56368 7.40527 4.45575 7.53085 4.38044C7.65642 4.30513 7.80006 4.26526 7.94648 4.26509H11.3727C11.5058 4.26542 11.6368 4.29833 11.7542 4.36093C11.8716 4.42353 11.972 4.51393 12.0464 4.62423L22.658 20.5312L23.5651 21.8865C23.7628 22.1833 24.0307 22.4267 24.3451 22.5951C24.6595 22.7635 25.0107 22.8516 25.3673 22.8516C25.724 22.8516 26.0751 22.7635 26.3895 22.5951C26.7039 22.4267 26.9719 22.1833 27.1695 21.8865L28.074 20.5312C28.074 20.5312 38.9267 4.26509 38.9294 4.26509L39.3855 3.58089C39.6026 3.25444 39.7272 2.87522 39.7458 2.4836C39.7645 2.09197 39.6767 1.70262 39.4916 1.35698C39.3065 1.01133 39.0312 0.722349 38.6949 0.520782C38.3587 0.319216 37.974 0.212616 37.5819 0.212334Z" fill="white"/>
<path d="M102.798 7.80667C102.44 8.03584 102.013 8.13486 101.591 8.08713C101.168 8.03941 100.774 7.84785 100.476 7.54452C100.037 7.09631 99.5138 6.74055 98.9356 6.4983C98.3575 6.25606 97.7366 6.13224 97.1097 6.13418C96.7177 6.11707 96.3261 6.17775 95.9576 6.31273C95.5891 6.44771 95.251 6.65431 94.9628 6.92062C94.5515 7.34114 94.3202 7.9053 94.3179 8.49349C94.3179 9.27992 94.677 9.78324 95.3193 10.2132C95.7492 10.4989 96.1791 10.6431 97.6786 11.4295L101.257 13.22C102.83 14.0064 104.334 14.7928 105.48 16.0118C107.129 17.6581 107.7 19.5193 107.7 21.5955C107.723 24.1398 106.777 26.5975 105.053 28.4689C102.693 31.0458 99.7548 31.8349 96.6038 31.8349C94.6718 31.8349 92.2365 31.5465 90.0895 29.9002C88.7926 28.8902 87.7308 27.6102 86.9779 26.1489C86.862 25.9299 86.7916 25.6897 86.7711 25.4427C86.7505 25.1957 86.7802 24.9472 86.8584 24.712C86.9365 24.4768 87.0615 24.2599 87.2258 24.0744C87.39 23.8888 87.5902 23.7385 87.8141 23.6323L90.2678 22.4684C90.6923 22.2677 91.1776 22.2374 91.6238 22.3837C92.07 22.53 92.4431 22.8418 92.6664 23.2549C92.9066 23.7257 93.2208 24.1549 93.597 24.5263C94.0269 24.9562 95.0283 25.6718 96.6746 25.6718C97.7494 25.6718 98.895 25.3127 99.5398 24.6704C100.155 24.0353 100.511 23.1945 100.541 22.3111C100.547 21.4872 100.236 20.6926 99.6735 20.0908C99.6316 20.0462 99.5896 19.999 99.5451 19.9571C98.701 19.1366 97.7101 18.6463 96.6038 18.1588L94.0269 16.9424C92.6664 16.2975 91.0201 15.5111 89.8746 14.3655C89.1693 13.7247 88.6118 12.9382 88.2406 12.0605C87.8694 11.1828 87.6935 10.235 87.725 9.28254C87.7113 6.90114 88.6013 4.60318 90.2153 2.85214C91.5864 1.42083 93.8854 0 97.6 0C99.7495 0 101.467 0.429917 103.184 1.57287C104.044 2.12955 104.814 2.8147 105.467 3.60449C105.633 3.80294 105.756 4.0344 105.827 4.28364C105.897 4.53287 105.914 4.79422 105.877 5.05052C105.839 5.30681 105.748 5.55224 105.608 5.77064C105.469 5.98904 105.285 6.17548 105.068 6.31769L102.798 7.80667Z" fill="white"/>
<path d="M156.821 1.99754V29.3156C156.821 29.8023 156.628 30.2691 156.284 30.6132C155.939 30.9573 155.473 31.1507 154.986 31.1507H151.72C151.233 31.1507 150.766 30.9573 150.422 30.6132C150.078 30.2691 149.885 29.8023 149.885 29.3156V5.6833C149.884 5.40721 149.947 5.13465 150.066 4.88592C150.186 4.63719 150.361 4.41871 150.577 4.24675L154.703 0.969939C154.896 0.818865 155.128 0.725017 155.372 0.699074C155.615 0.67313 155.862 0.71613 156.082 0.823178C156.303 0.930226 156.489 1.09703 156.62 1.30463C156.75 1.51223 156.82 1.7523 156.821 1.99754Z" fill="white"/>
<path d="M133.469 7.80667C133.111 8.03584 132.684 8.13486 132.262 8.08713C131.839 8.03941 131.445 7.84785 131.147 7.54452C130.708 7.09631 130.185 6.74055 129.607 6.4983C129.028 6.25606 128.408 6.13224 127.781 6.13418C127.389 6.11707 126.997 6.17775 126.629 6.31273C126.26 6.44771 125.922 6.65431 125.634 6.92062C125.223 7.34114 124.991 7.9053 124.989 8.49349C124.989 9.27992 125.348 9.78324 125.99 10.2132C126.42 10.4989 126.85 10.6431 128.35 11.4295L131.928 13.22C133.501 14.0064 135.005 14.7928 136.151 16.0118C137.8 17.6581 138.371 19.5193 138.371 21.5955C138.394 24.1398 137.448 26.5975 135.724 28.4689C133.364 31.0458 130.426 31.8349 127.275 31.8349C125.343 31.8349 122.908 31.5465 120.761 29.9002C119.464 28.8902 118.402 27.6102 117.649 26.1489C117.533 25.9299 117.463 25.6897 117.442 25.4427C117.422 25.1957 117.451 24.9472 117.529 24.712C117.608 24.4768 117.733 24.2599 117.897 24.0744C118.061 23.8888 118.261 23.7385 118.485 23.6323L120.939 22.4684C121.363 22.2677 121.849 22.2374 122.295 22.3837C122.741 22.53 123.114 22.8418 123.337 23.2549C123.578 23.7257 123.892 24.1549 124.268 24.5263C124.698 24.9562 125.699 25.6718 127.346 25.6718C128.42 25.6718 129.566 25.3127 130.211 24.6704C130.826 24.0353 131.182 23.1945 131.212 22.3111C131.218 21.4872 130.907 20.6926 130.345 20.0908C130.303 20.0462 130.261 19.999 130.216 19.9571C129.372 19.1366 128.381 18.6463 127.275 18.1588L124.698 16.9424C123.337 16.2975 121.691 15.5111 120.546 14.3655C119.84 13.7247 119.283 12.9382 118.912 12.0605C118.54 11.1828 118.365 10.235 118.396 9.28254C118.382 6.90114 119.272 4.60318 120.886 2.85214C122.257 1.42083 124.556 0 128.271 0C130.421 0 132.138 0.429917 133.855 1.57287C134.715 2.12955 135.485 2.8147 136.138 3.60449C136.304 3.80294 136.427 4.0344 136.498 4.28364C136.568 4.53287 136.585 4.79422 136.548 5.05052C136.51 5.30681 136.419 5.55224 136.279 5.77064C136.14 5.98904 135.956 6.17548 135.739 6.31769L133.469 7.80667Z" fill="white"/>
<path d="M74.8196 23.7398C74.9251 23.7986 75.0176 23.8782 75.0914 23.9738C75.1652 24.0694 75.2188 24.179 75.249 24.2959C75.2791 24.4128 75.2852 24.5347 75.2668 24.654C75.2485 24.7734 75.206 24.8878 75.1421 24.9903C73.9617 26.8734 72.3922 28.4823 70.5388 29.7089C68.1035 31.2817 64.8817 32 61.66 32C57.6518 32 54.3566 30.996 51.494 28.1334C48.6314 25.2707 47.0559 21.1158 47.0559 16.599C47.0559 11.9459 48.7022 7.42394 51.8532 4.21267C54.3566 1.70656 57.6518 0.131073 61.9457 0.131073C66.743 0.131073 69.8101 2.20726 71.611 4.06324C74.2494 6.64782 75.7574 10.1718 75.8053 13.8648C75.8053 13.8648 76.0675 17.5349 72.9217 17.5349L55.1929 17.6607C55.0674 17.6604 54.9433 17.6875 54.8294 17.7403C54.7155 17.7931 54.6145 17.8701 54.5336 17.966C54.4526 18.062 54.3937 18.1745 54.3608 18.2956C54.328 18.4168 54.3221 18.5436 54.3435 18.6673C54.666 20.5364 55.5284 22.4737 56.7998 23.7477C58.4461 25.394 60.4515 25.6797 62.1686 25.6797C64.1032 25.6797 65.5345 25.2498 66.9658 24.1776C67.8963 23.4493 68.6982 22.5703 69.3382 21.5771C69.4616 21.392 69.6507 21.2606 69.8672 21.2096C70.0838 21.1585 70.3116 21.1915 70.5047 21.3019L74.8196 23.7398ZM67.5294 11.9433C67.6714 11.943 67.8112 11.9089 67.9374 11.8437C68.0636 11.7786 68.1724 11.6844 68.2549 11.5688C68.3374 11.4533 68.3912 11.3197 68.4118 11.1793C68.4324 11.0388 68.4193 10.8954 68.3735 10.761C68.0081 9.65909 67.378 8.66357 66.5385 7.86172C65.6079 7.00188 64.1058 6.14205 61.8199 6.14205C59.3846 6.14205 57.8091 7.14606 56.8785 8.07668C56.0999 8.82759 55.4942 9.73916 55.1038 10.7479C55.0513 10.883 55.0326 11.0288 55.0493 11.1727C55.0659 11.3167 55.1174 11.4543 55.1992 11.5739C55.2811 11.6934 55.3908 11.7912 55.519 11.8588C55.6472 11.9264 55.7899 11.9617 55.9348 11.9617L67.5294 11.9433Z" fill="white"/>
</svg>
